<?xml version="1.0" encoding="UTF-8"?>
<svg xmlns="http://www.w3.org/2000/svg" version="1.1" xmlns:cc="http://creativecommons.org/ns#" xmlns:dc="http://purl.org/dc/elements/1.1/" xmlns:inkscape="http://www.inkscape.org/namespaces/inkscape" xmlns:ns1="http://sozi.baierouge.fr" xmlns:rdf="http://www.w3.org/1999/02/22-rdf-syntax-ns#" xmlns:sodipodi="http://sodipodi.sourceforge.net/DTD/sodipodi-0.dtd" xmlns:svg="http://www.w3.org/2000/svg" viewBox="0 0 101.8 146.66">
  <!-- Generator: Adobe Illustrator 29.8.1, SVG Export Plug-In . SVG Version: 2.1.1 Build 2)  -->
  <defs>
    <style>
      .st0 {
        fill: #fff;
      }

      .st1 {
        fill: #261a0b;
      }

      .st2 {
        fill: #ede6c3;
      }
    </style>
  </defs>
  <g id="svg2" inkscape:version="0.48.0 r9654" sodipodi:docname="ECI-book.svg">
    <sodipodi:namedview id="base" bordercolor="#666666" borderopacity="1.0" fit-margin-bottom="0" fit-margin-left="0" fit-margin-right="0" fit-margin-top="0" inkscape:current-layer="layer1" inkscape:cx="50.898991" inkscape:cy="73.328933" inkscape:document-units="px" inkscape:pageopacity="0" inkscape:pageshadow="2" inkscape:showpageshadow="true" inkscape:window-height="643" inkscape:window-maximized="1" inkscape:window-width="1280" inkscape:window-x="0" inkscape:window-y="24" inkscape:zoom="3.0820031" pagecolor="#ffffff" showborder="true" showgrid="false"/>
    <g id="layer1" inkscape:groupmode="layer" inkscape:label="Layer 1">
      <path d="M10.82,146.34c-1.49-.25-4.49-2.43-6.75-4.88L0,137.04v-8.97C0,102.46,3.52,27.68,4.84,25.33c1.01-1.81,5.91-3.72,43.44-16.95C61.35,3.77,73.21,0,74.62,0s4.22,1.42,6.38,3.27c3.85,3.29,10.61,5.73,15.89,5.73s5.51.68,4.24,27.78c-.64,13.6-1.67,35.75-2.29,49.22-.76,16.35-1.58,25.38-2.47,27.16-.87,1.74-2.98,3.27-6.11,4.42-18.42,6.79-63.29,25.04-65.61,26.68-2.86,2.02-8.89,2.93-13.84,2.08h0Z"/>
      <path class="st1" d="M22.35,140.5l5.15-1.5v-22.7l-6.7.48c-4.84.35-7.85.02-10.88-1.19-2.3-.92-4.41-1.44-4.69-1.16-.8.8-1.57,19.11-.91,21.73.76,3.03,5.27,5.78,9.52,5.82,1.84.01,5.67-.65,8.5-1.47h0Z"/>
      <path class="st1" d="M61.8,124.43c16.33-6.36,30.09-11.96,30.58-12.43.83-.81,2.06-20.27,4.65-73.35.61-12.57.93-23.03.7-23.26-.23-.23-14.1,3.79-30.82,8.92l-30.41,9.33-.66,6.57c-.62,6.17-1.49,21.29-3.9,67.78-.56,10.72-1.27,21.41-1.59,23.75-.4,2.9-.21,4.25.58,4.25.64,0,14.53-5.2,30.86-11.57h0Z"/>
      <path class="st1" d="M25.61,111.41c2.32-.62,2.59-2.63,4.03-29.74l.68-12.84-4.91.81c-6.93,1.14-10.99.78-15.38-1.39l-3.81-1.89-.72,19.68c-.4,10.83-.44,20.58-.09,21.68.35,1.1,1.64,2.48,2.86,3.07,2.38,1.15,13.84,1.56,17.34.62h0Z"/>
      <path class="st1" d="M25.38,64.84c2.26-.64,4.4-1.43,4.75-1.75.35-.32.94-7.06,1.33-14.97.64-13.17.56-14.33-.97-13.75-.91.35-4.12.93-7.13,1.28-4.51.53-6.34.24-10.41-1.67-2.72-1.27-5.12-2.13-5.35-1.89-.22.23-.56,6.77-.74,14.53-.36,14.97.05,16.59,4.61,18.44,2.99,1.21,9.23,1.12,13.92-.22h0Z"/>
      <path class="st2" d="M51.66,20.35c20.53-7.89,30.34-12.12,30.34-13.11s-.58-1.23-1.75-.78C42.66,20.88,18.29,30.47,17.55,31.14c-3.1,2.8,7.28-.49,34.11-10.8h0Z"/>
      <path class="st2" d="M63.25,21.79c15.26-5.1,27.75-9.61,27.75-10.03,0-2.32-9.64.21-31.75,8.33-13.61,5-25.43,9.49-26.25,9.97-4.79,2.81,5.5,0,30.25-8.27h0Z"/>
      <path class="st2" d="M39.5,19c12.1-4.48,25.71-9.52,30.25-11.2,4.54-1.68,8.25-3.48,8.25-4s-1.01-.62-2.25-.23C36.16,15.96,9.11,25.01,8.44,26.1c-.33.54-.08,1.62.56,2.4,1.01,1.21,1.7,1.21,4.84.03,2.01-.76,13.56-5.05,25.66-9.53h0Z"/>
    </g>
    <path class="st0" d="M63.97,86.68c-1.67-1.03-2.52-2.61-2.49-4.66.03-1.39.36-2.77,1.02-4.16.66-1.39,2.12-3.72,4.47-7.01,1.86-2.6,3.3-4.77,4.26-6.52.95-1.75,1.48-3.37,1.56-4.89.12-2.35-.65-4.13-2.33-5.24-1.68-1.11-3.78-1.27-6.27-.62-1.4.36-2.92,1.05-4.55,1.98-.66.75-1.25,1.72-1.78,2.92-.54,1.14-.81,1.71-1.35,2.82-.17.13-.25.19-.42.32-.62-.03-.93-.05-1.56-.11-.09-.2-.13-.29-.21-.49,1.09-3.27,1.64-4.93,2.73-8.31,2.76-2.07,5.79-3.71,9.09-4.61,2.53-.69,4.86-.88,6.95-.43,2.09.45,3.72,1.6,4.85,3.3,1.14,1.71,1.65,3.75,1.52,6.01-.09,1.5-.42,2.9-.99,4.23-.57,1.33-1.37,2.65-2.38,4-1.01,1.35-2.89,3.41-5.52,6.39-1.66,1.88-2.9,3.43-3.75,4.6-.85,1.17-1.49,2.25-1.93,3.25s-.66,1.86-.68,2.59c-.04,1.23.36,2.25,1.16,3.06-.03.21-.05.31-.08.51-.33.37-.5.56-.83.93-.2.05-.3.08-.5.13ZM64.46,91.12c1.02-.28,1.87-.11,2.56.53.69.63,1.02,1.54,1,2.72-.02,1.15-.39,2.23-1.09,3.24-.71,1.01-1.55,1.66-2.55,1.93-.98.27-1.83.07-2.56-.57s-1.1-1.56-1.1-2.71c0-1.2.38-2.27,1.13-3.26s1.62-1.61,2.6-1.88Z"/>
  </g>
</svg>