<?xml version="1.0" encoding="UTF-8"?>
<svg id="svg37" xmlns="http://www.w3.org/2000/svg" viewBox="0 0 175.29 218.68">
  <defs>
    <style>
      .cls-1 {
        fill: #fff;
      }
    </style>
  </defs>
  <g id="layer1">
    <path id="path50" class="cls-1" d="M47.86,218.59c-.34-.05-1.08-.25-1.63-.44-1.28-.43-2.78-.73-5.54-1.1-3.16-.42-4.47-.73-4.47-1.07,0-.48,3.78-.17,6.38.54l1.54.42,3.93-.02c3.18-.01,4.11-.05,4.85-.21.9-.19,2.29-.76,2.74-1.13.22-.18.18-.18-.57-.13-1.86.15-7.88.18-9.98.06-4.12-.24-8.22-.8-12.11-1.66-2.1-.47-3.09-.85-3.03-1.16.06-.31,1.52-.33,2.68-.05,1.07.27,1.69.37,5.17.82,1.47.19,3.14.47,3.71.62,1.15.31,2.61.52,3.65.51.38,0,1.31.06,2.08.14,1.1.11,1.45.11,1.65,0,.14-.08.47-.2.73-.28.26-.08.49-.19.51-.25.08-.22-2.99-1.16-5.59-1.7-2.56-.54-4.67-.79-8.58-1.03-3.27-.2-3.52-.24-3.52-.51,0-.33.44-.78.89-.93.27-.09,1.85-.15,4.45-.19,4.43-.06,5.21,0,6.92.54,2.37.75,3.92.94,5.53.69.64-.1.98-.1,1.37,0,.43.11.93.08,3.01-.17,1.37-.16,2.69-.3,2.94-.3s.56-.05.68-.12c.19-.1.2-.15.08-.3-.11-.13-.27-.16-.69-.1-.5.07-.57.05-.85-.27-.23-.26-.41-.35-.69-.35-.5,0-1.13.27-1.28.55-.14.27-.35.37-1.04.49-.8.14-2.07-.09-3.54-.64-2.39-.89-4.04-1.24-7.81-1.65-3.46-.37-5.3-.97-5.17-1.68.1-.51,1.68-.4,4.36.3.95.25,2.31.56,3.02.69.71.13,1.54.34,1.85.46.42.17.88.22,1.9.24,2.61.04,3.44,0,5.18-.23.97-.13,2.27-.26,2.89-.31l1.14-.08-2.11-.61c-1.16-.34-2.22-.61-2.36-.61-.22,0-.24.04-.19.39.08.48-.2.79-.88,1-.4.12-.63.11-1.4-.05-.51-.1-1.78-.32-2.81-.48-1.03-.16-2.42-.42-3.08-.57-1.49-.35-2.57-.5-3.56-.51-.91,0-4.92-.66-6.58-1.08-.65-.16-1.73-.5-2.39-.75-.67-.25-1.44-.54-1.72-.64-.28-.1-.8-.46-1.17-.8l-.67-.61-.89.07c-.73.06-1.03.03-1.68-.17-.43-.13-1.13-.29-1.54-.35-1.02-.14-1.29-.3-2.34-1.42-1.09-1.15-1.65-1.97-2.1-3.05-.56-1.36-1.12-2.15-2.62-3.7-1.58-1.63-1.78-1.91-2.22-3.07-.16-.43-.66-1.5-1.11-2.37-1.17-2.26-1.4-2.44-1.67-1.34-.08.34-.25.73-.38.86-.3.33-.39.77-.6,3-.23,2.45-.46,3.29-.87,3.3-.14,0-.31-.3-.46-.85l-.16-.57-.26.68c-.18.47-.29,1.09-.35,2.01-.11,1.52-.27,1.99-.69,1.99s-.56-.41-.73-2.06c-.15-1.45-.28-1.82-.55-1.55-.1.1-.16.9-.22,2.62-.08,2.64-.14,3.07-.45,3.61-.18.3-.18.39-.05.78.18.5.59.98,1.27,1.45.7.48,1,1.17.93,2.14-.03.48,0,.89.09,1.1.08.19.15.47.15.63,0,.64-2-1.93-3.16-4.06-.27-.49-.9-1.38-1.4-1.96-1.15-1.34-1.57-1.95-1.9-2.75-.55-1.35-.19-2.19,1.27-2.94.25-.13.79-.58,1.2-.99.45-.46.96-.86,1.32-1.02,1.2-.54,2-1.6,3.25-4.33.5-1.09.86-1.71,1.15-2,.55-.54.85-1.16,1.12-2.32.12-.52.5-1.54.84-2.26.34-.72.73-1.64.86-2.05.35-1.07.83-1.83,1.74-2.8,1.15-1.21,3.28-2.47,5.06-3,.79-.24.82-.26,2.17-1.7,2.07-2.2,2.03-2.13,2.06-3.44.02-.6.06-1.79.1-2.64.05-1.06.01-2.18-.12-3.6-.22-2.36-.14-3.36.35-4.54.22-.53.35-1.2.52-2.7.28-2.45,1.31-7.68,1.87-9.52,1.16-3.81,2.59-5.09,2.23-2-.18,1.52-.39,2.34-1.04,4.11-.8,2.15-1.08,3.37-1.36,5.87-.35,3.08-.42,6.35-.17,8.1.29,2.05.33,2.92.19,3.75-.16.95-.03,1.85.51,3.46.62,1.85.53,3.03-.28,3.71-.45.38-.89.39-1.5.05l-.46-.26-.66.7c-.5.53-.86,1.09-1.46,2.28-1.21,2.39-1.58,3.42-1.79,4.94-.34,2.48-.52,3.48-.76,4.2-.2.6-.3.75-.62.9-.35.17-.4.17-.67,0-.45-.3-.6-.24-.74.32-.17.69-.6,1.02-1.21.94-.81-.11-1.18-.84-1.44-2.83-.09-.74-.1-1.23,0-1.85.24-1.62.65-2.49,1.71-3.64.84-.9,1.04-1.21,1.04-1.55,0-.27-.01-.27-.71-.2-1.08.12-1.44.35-1.97,1.29-.25.44-.55.93-.66,1.09-.29.4-.46,2.14-.38,3.79.09,1.63.2,2.17.51,2.46.14.13.29.5.37.91.17.87.5,1.36,1.08,1.63.64.3.84.51,1.13,1.16.28.62.98,1.44,2.95,3.47,1.39,1.43,2.2,2.08,3.47,2.77.63.35,1.04.69,1.71,1.44,1.36,1.53,2.12,2.26,2.61,2.5.24.12.79.48,1.22.8,1.06.78,1.59.98,2.32.84.66-.12,1-.02,1.32.38.61.78,4.35,2.03,7.64,2.55.82.13,1.91.4,2.51.62,1.6.58,1.7.59,2.09.24.36-.34.49-.34,2.34,0,.53.1,2.11.24,3.51.31,2.82.15,4.22.07,6.08-.37.87-.2,1.01-.27.83-.37-.24-.14-1.51-.14-3.03-.02-2.18.18-7.3-1.05-7.72-1.85-.29-.56.44-1.09,1.51-1.09.62,0,.7.03.98.37l.31.37.55-.29c.92-.49,1.74-.3,2.01.45.16.44.3.51.4.2.24-.75.69-1.05,1.33-.87.28.08.43.23.61.61l.24.51.19-.45c.11-.25.25-.79.31-1.19.21-1.32.39-1.54,1.06-1.22.5.24.61.59.29.93-.2.21-.24.37-.21.82.04.65.19.72.38.16.08-.23.26-.46.43-.54.32-.15.57-.9.57-1.68,0-.62-.17-.75-.98-.71l-.69.03-.26-.68c-.14-.38-.3-.76-.35-.84-.07-.12-.49-.16-1.98-.17-1.66-.01-1.92-.04-2.12-.22-.32-.29-.38-.6-.14-.82.29-.26,2.32-.66,3.08-.6.48.03.74.12,1.07.37l.43.33-.08-.88-.08-.88.41-.39c.45-.43,1.16-.62,1.54-.42.13.07.54.12.91.12.69,0,2.42-.2,2.52-.3.17-.17-.32-.26-1.42-.28-2.66-.04-3.93-.27-3.93-.72,0-.21,1.03-.64,1.75-.72.67-.08.98-.21,1.2-.51.35-.5,1.96-.94,3.84-1.06,1.31-.08,2.18-.3,2.89-.7.4-.23.47-.32.36-.45-.29-.35.21-1.28.81-1.53.42-.17.51-.11.85.6.18.37.3.49.55.52.26.03.35-.03.51-.34.3-.56,1.07-1.34,1.41-1.42.22-.05.36-.01.5.15.6.69.75.82.99.82.42,0,.75-.31,1.13-1.06.19-.38.48-.89.63-1.12.22-.34.26-.51.2-.83-.09-.49.13-.89.63-1.15.57-.3.76-.1.82.86.08,1.34.43,1.29,1.18-.16.23-.45.62-1.13.87-1.51.27-.41.42-.77.38-.88-.12-.31.29-1.46.64-1.81.46-.46.79-.4,1.02.2.28.74.55,1.08.86,1.08.35,0,.55-.32.74-1.19.16-.76.52-1.21.96-1.21.39,0,.52.3.52,1.19,0,.82.05.87.59.55.25-.15.32-.26.28-.44-.08-.33.24-1.38.51-1.65.17-.17.38-.22.97-.22.91,0,1.19-.14,1.96-.95.54-.57.6-.68.6-1.15,0-.63.29-.98.81-.98.34,0,.35.02.31.43-.05.53.15.6.82.26.74-.38,1.02-.74,1.02-1.32,0-.27.05-.52.1-.55.06-.03.32.01.58.11.59.21,1.19.22,1.33.03.06-.08.3-.64.53-1.25.47-1.22.85-1.86,1.1-1.86.1,0,.23.21.32.49.17.54.56.74.89.47.15-.12.17-.29.1-.86-.06-.53-.03-.79.1-1.04.1-.18.17-.43.16-.55-.02-.28.46-.93.75-1.02.5-.16.62.45.34,1.72-.07.33-.05.32.63-.29.98-.86,1.27-1.31,1.27-1.96,0-.41.05-.56.22-.65.38-.2.59-.13,1.03.34.38.42.5.47,1.19.57.42.06.98.21,1.23.34.25.13.48.21.51.19.03-.03.09-.32.15-.66.06-.37.18-.66.31-.76.27-.2.85-.1,1.4.25.5.31,1.03.44,1.25.3.12-.08.07-.15-.21-.29-.5-.26-1.35-1.05-1.56-1.46-.51-.98.5-1.27,1.4-.41.45.44,1.19.57,1.52.27.28-.26.2-.47-.42-1.05-.4-.38-.5-.54-.47-.8.03-.26.1-.33.35-.36.25-.03.43.08.87.53.42.42.68.58,1.01.63.47.08.82.37,1.07.93.09.19.26.36.39.37.32.05,1.99-1.18,1.99-1.46s-.34-.5-1.15-.78c-1.21-.42-2.38-1.19-2.38-1.56,0-.2.59-.5.99-.5.17,0,.6.17.95.39.36.22.91.44,1.28.51.36.07.81.2.99.3.51.26.9.22,1.27-.15.51-.51.53-.81.13-2.05-.19-.61-.48-1.59-.65-2.18-.57-2.08-1.35-3.52-2.96-5.54-.45-.56-.86-1.12-.9-1.23-.04-.11-.38-.6-.75-1.08-.38-.48-.96-1.39-1.29-2.02-.51-.95-.7-1.19-1.13-1.46-.62-.38-3.76-1.21-4.97-1.3-.78-.06-.82-.05-.76.16.08.29-.47.7-1.12.85-.96.22-2.55-.55-3.41-1.64-.24-.31-.44-.61-.44-.67,0-.17-.72-.56-1.05-.56-.17,0-.45.12-.63.27-.29.25-.32.35-.32,1,0,.59.09.91.48,1.79.26.59.57,1.17.68,1.3.11.13.78.66,1.49,1.19,1.64,1.23,2.17,1.43,3.81,1.41,1.07-.01,1.3.02,1.92.28.39.16,1.09.34,1.56.39,1.2.13,1.22.17,1.26,1.86.02.82.11,1.65.21,2.02.4,1.42,1.42,2.46,2.82,2.86,1.63.47,1.74.59,1.4,1.42-.24.58-.87.86-1.95.86s-1.58.19-1.85.76c-.44.93-1.28.56-2.26-.99-.72-1.15-1.12-1.54-1.76-1.71-.83-.22-1.95.22-2.85,1.12-1.08,1.08-1.3,2.31-.79,4.43.2.85.23,1.1.12,1.34-.23.51-.93.34-1.92-.47-.53-.43-1.09-.63-1.47-.54-.14.04-.37,0-.5-.07-.31-.17-.91-1.42-.91-1.9,0-.83-.85-1.32-2.99-1.74-2-.39-3.3-.48-4.31-.28-1.72.33-3.25.97-4.39,1.84-1.77,1.35-2.81,1.81-5.04,2.23-1.86.35-5.01.38-5.37.05-.2-.18-.35-.2-.84-.14-1.14.13-5.01,1.5-6.16,2.17-.27.16-1.07.54-1.78.85-.71.31-1.54.73-1.84.92-.35.22-.99.46-1.73.64-.65.16-1.31.36-1.48.45-.55.29-1,.92-1.25,1.79-.36,1.27-.69,1.9-1.2,2.32-.56.46-2.28,1.31-2.66,1.31-.43,0-.94-.44-1.23-1.07-.45-.96-.37-1.33.36-1.65.58-.25,1.48-1.05,1.72-1.52.21-.41.05-.65-.42-.65s-.75-.32-.96-1.05c-.17-.62-.58-1.12-.92-1.12-.28,0-.63-.52-.63-.93,0-.36.26-.78.49-.78.04,0,.2-.05.35-.11l.28-.11-.22-.43c-.22-.43-.28-1-.15-1.35.09-.24.66-.54.88-.45.09.03.22.19.29.34.19.42.72.38,1.08-.08l.28-.35.4.19c.31.15.46.34.69.86.17.38.42.75.59.87.28.19.32.19.49.01.34-.34.24-.91-.23-1.36-.23-.22-.42-.49-.42-.61,0-.36-.44-1.19-.87-1.67-.67-.74-.95-1.72-.54-1.87.1-.04.51.03.91.16.66.22.73.22.88.05.22-.25.8-1.27.75-1.31-.8-.48-1.42-1-1.67-1.41-.17-.28-.42-.66-.54-.86-.14-.22-.45-.46-.81-.61l-.58-.25.2.93c.36,1.68.47,2.67.34,2.91-.07.12-.38.37-.69.54-.65.36-.71.53-.23.73.52.21.64.42.35.57-.5.27-.68.11-1.34-1.13-.34-.66-.64-1.34-.67-1.53-.13-1.03-.66-2.13-1.02-2.13-.28,0-.74-.5-.81-.88-.07-.35-.05-.38.43-.59.72-.32,1.92-1.59,1.92-2.04v-.34l-.57.22c-.31.12-.68.22-.81.22-.23,0-.24-.04-.16-.6.04-.33.19-.83.33-1.11.4-.81.9-.86,1.81-.2.3.22.33.07.14-.66-.22-.83-.45-1.21-.96-1.56-.24-.16-.55-.56-.79-1.01-.36-.67-.47-.78-1.04-1.05-.74-.35-1.07-.82-1.01-1.45.03-.34.08-.4.36-.44.32-.04.47.04,2.07,1.18.59.42,1.46.74,2.02.74.69,0,1.07-.96.52-1.29-1.33-.81-2.94-1.87-3.2-2.12-.48-.44-.68-.89-.6-1.33.04-.21.13-.43.21-.49.2-.17,1.09.17,2.26.87,1.33.8,1.7.79,1.45-.03-.19-.62-.91-1.37-1.65-1.74-.54-.26-.84-.32-1.89-.38-1.64-.08-1.7-.15-1.4-1.55l.07-.34-.8.04c-.85.04-1.53-.17-1.66-.52-.04-.11.1-.36.39-.67.47-.51.58-.94.32-1.16-.08-.06-.37-.18-.66-.25-.61-.16-.7-.27-.55-.69.27-.78,1.25-1.15,1.84-.68.28.22.31.32.31.9,0,.73.13.93.59.93.6,0,.86-.49.79-1.52-.05-.79.04-.95.7-1.15.78-.24,1.45-.53,1.45-.62,0-.04-.1-.45-.22-.91-.15-.6-.19-.91-.11-1.05.06-.11.12-.21.14-.21.7-.04,2.68-.52,3.15-.76.85-.44.85-.57-.02-.51-.8.05-1.54-.15-1.73-.47-.19-.31.51-.92.94-.83.51.11,1.93-.49,2.33-.98.45-.55.36-.78-.29-.78-1.1,0-1.18-.7-.14-1.24.31-.16.56-.35.55-.41,0-.06-.19-.14-.41-.18-.5-.08-1.54-.84-1.63-1.19-.1-.38.02-.52,1.06-1.34,1.2-.95,1.38-.99,2.24-.54.71.37,1.09.43,1.45.23.32-.17.27-.47-.13-.86-.4-.38-.67-.85-.67-1.17,0-.34.39-.61.8-.57.57.06.82.48.9,1.54.07.95.15,1.17.42,1.17.29,0,.55-.95.72-2.65.11-1.11.23-1.34.71-1.34.45,0,.57.29.49,1.13-.06.58-.04.7.12.76.28.11.43.45.53,1.26.15,1.18.58,1.38.74.34.04-.26.2-.9.35-1.42.44-1.47,1.14-2.08,1.82-1.57.35.27.8.21,1.07-.13.18-.23.24-.46.24-1.02,0-.81.17-1.08.67-1.08s.74.35.65.98c-.08.62.04.84.48.84.62,0,.64-.08.74-2.48.02-.52.09-.99.14-1.04.06-.05.35-.06.66,0,.31.05.69.05.85.01.48-.13.53-.34.34-1.51-.14-.88-.26-1.22-.65-1.86-.26-.43-.47-.88-.47-1,0-.3.3-.84.51-.92.27-.1.43,0,.86.62.22.31.55.65.73.75.32.17.35.17.55-.09.18-.22.21-.41.18-1.02-.08-1.36-.96-2.73-1.76-2.73-.36,0-.78.49-1.05,1.23-.34.94-.88,1.78-1.91,3-1.52,1.8-1.47,1.77-2.62,1.42-1.67-.51-2.51-.46-4.02.22-.58.26-1.15.42-1.67.47-.54.05-1.6.36-3.25.93-4.52,1.57-5.46,2.12-6.55,3.8-.52.81-1.19,1.27-2.06,1.42-.46.08-2,.84-2.36,1.17-.11.1-.25.36-.33.59-.21.67-.89,1.9-1.32,2.4-.24.28-.69.6-1.12.81-.8.38-.98.56-2.65,2.69-1.65,2.1-3.71,4.07-4.91,4.71-.52.27-1.01.58-1.1.68-.19.22-1.54,3.1-2.03,4.33-.48,1.21-.97,1.95-1.43,2.14-.26.11-.46.32-.65.7-.32.62-.79,1.11-.97,1-.21-.13-.14-.62.34-2.46,1.05-4.03,2.23-6.85,3.59-8.53.42-.52,1.38-1.47,2.15-2.13.76-.65,1.86-1.59,2.43-2.08,1.29-1.11,5.19-4.79,5.32-5.02.16-.28-.15-.48-1.02-.68-1.07-.25-6.8-.34-9.54-.16-1.09.07-4.41.18-7.39.24-2.98.06-5.57.13-5.76.17-.19.04-.67.15-1.06.24-.51.12-1.01.15-1.71.1-.7-.05-1.56,0-2.98.17-2.77.34-6.72.43-8.31.18-1.15-.18-3.18-.79-4.02-1.22-.79-.4-1.47-1.57-1.29-2.19.04-.14.22-.41.4-.59.2-.22.4-.64.55-1.15.36-1.31.74-1.84,1.62-2.27.67-.33,1.13-.73,1.36-1.18.12-.24.41-.65.64-.93.54-.65,1.02-1.6,1.25-2.52.1-.4.37-1.3.6-1.99.27-.82.41-1.48.42-1.92,0-.66,0-.67-.59-1.2-.7-.62-.82-.95-.83-2.18,0-1.04-.16-1.76-.46-2.14-.12-.16-.22-.42-.22-.59,0-.48.58-1.52.99-1.77.49-.31.87-1.05,1.17-2.25.33-1.35.74-2.65,1.28-3.99.29-.72.59-1.82.85-3.12.47-2.35.67-2.92,1.36-3.92.97-1.41,1.75-4.3,1.98-7.39.1-1.34.38-2.61,1.27-5.75.59-2.07.77-2.99.91-4.56.14-1.55.35-2.62,1.27-6.4.38-1.56.66-2.91.63-3-.09-.24.45-2.98.85-4.28.26-.84.34-1.33.34-2.03,0-1.07.06-1.22.8-2.01.52-.55.91-1.41.91-2,0-.11.15-.36.34-.55.36-.37.38-.43.58-1.6.09-.53.28-1.02.69-1.73.31-.54.64-1.21.74-1.48.1-.27.38-.83.62-1.24.59-.99,1.64-3.19,1.93-4.07.13-.39.24-.94.24-1.22s.14-.87.33-1.34c.18-.46.51-1.55.74-2.43.23-.88.91-3.08,1.51-4.9.98-2.97,1.13-3.35,1.53-3.78.24-.26.57-.73.73-1.05.45-.89,1.96-4.79,2.59-6.69.31-.94.66-1.84.77-2,.38-.53.66-1.18,1.08-2.51.37-1.2.7-1.85,1.33-2.62.28-.35.52-1.31,1.15-4.7l.49-2.59h.63c.95.02,1.7.17,2.04.42.17.12.45.52.63.88.25.5.45.72.86.95.29.16.81.47,1.15.69,2.32,1.44,3.11,1.84,5.16,2.61.59.22,1.16.55,1.71.98.62.49,1.08.75,1.91,1.04.6.21,1.5.57,2,.8.5.22,2.02.74,3.36,1.15,2.93.89,3.8,1.23,5.3,2.12,1.83,1.08,3.17,1.5,6.12,1.93,1.84.27,2.49.43,4.48,1.11.82.28,2.47.76,3.66,1.07,2.54.65,4.28,1.26,7.34,2.59,2.42,1.05,3.36,1.53,4.19,2.16.29.22.92.64,1.4.92.48.28,1.25.8,1.72,1.15.98.73,4.27,3.93,5.56,5.41,1.35,1.55,1.94,1.66,3.2.57,1.36-1.17,2.44-1.65,5.33-2.36,1.07-.26,2.45-.64,3.08-.84,1.66-.52,2.27-.55,4.68-.2,1.13.16,3.77.45,5.87.65,2.31.21,4.36.46,5.19.64.75.16,1.7.34,2.11.4.41.06.85.17.99.24.17.08.61.09,1.37.02.61-.06,3.01-.1,5.33-.1,4.62,0,5.49.07,9.86.79,4.31.71,5.41.8,9.41.8,3.33,0,3.84-.03,5.87-.31,3.29-.45,4.51-.54,6.81-.51,2.34.04,2.39.05,2.78.93.4.9.54,4.22.27,6.33-.07.55-.08.53.83,1.71.2.26.47.77.61,1.12.37,1,.76,1.33,1.88,1.6,2,.49,3.88,2.6,3.88,4.37,0,.62-.02.67-.54,1.2-.45.46-.75,1-1.84,3.34-.71,1.54-1.44,3.2-1.62,3.71-.18.5-.65,1.6-1.05,2.45-.4.85-.78,1.77-.85,2.05-.07.28-.44,1.21-.84,2.05-2.18,4.64-2.89,6.37-3.25,7.97-.37,1.61-.66,2.36-1.7,4.46-1.22,2.45-1.46,3.06-2.06,5.13-.31,1.09-.69,2.07-1.14,2.96-1.03,2.05-1.56,3.37-1.88,4.68-.16.66-.48,1.71-.7,2.34-.33.93-.42,1.39-.5,2.51-.1,1.47-.5,3.33-1.19,5.51-.22.71-.51,1.96-.64,2.79-.38,2.49-.78,3.9-1.69,5.96-.19.44-.53,1.47-.75,2.29-.22.82-.69,2.15-1.04,2.96-.36.81-.9,2.21-1.21,3.1-.31.9-.68,1.88-.83,2.18-.39.77-.72,1.89-.8,2.75-.04.4-.2,1.05-.36,1.43-.16.38-.44,1.43-.62,2.34-.43,2.13-.72,3.27-1.01,3.95-.13.3-.21.66-.17.79.04.15-.13.63-.45,1.29-.28.58-.67,1.49-.86,2.04-.34.95-.35,1.05-.28,2.19.08,1.25-.09,2.74-.46,3.96-.5,1.69-1.93,2.09-4.73,1.35-1.87-.5-6.95-1.21-8.61-1.21-.49,0-.8-.09-1.42-.4-.97-.49-1.89-.74-2.73-.74-.35,0-2.04-.23-3.77-.51-3.72-.61-4.29-.63-4.77-.23-.72.61-.77,1.78-.12,2.6.67.83.44,1.81-.59,2.53-.34.24-.52.46-.55.65-.02.16.15.92.37,1.7.91,3.14.96,4.91.19,7.8-.73,2.76-1.01,3.36-2.22,4.72-.7.79-.89,1.31-.65,1.82.08.17.37.99.65,1.82.28.83.71,1.96.96,2.5,1.3,2.81,1.1,4.05-1.11,6.87-.63.81-.75.89-2.11,1.61-.79.41-1.77.96-2.16,1.22-1.1.72-2.66,1.41-5.22,2.31-2.89,1.02-4.07,1.4-5.53,1.77-1.56.39-1.93.55-2.83,1.2-.43.31-1.3.82-1.94,1.13-1.07.52-1.56.86-4.07,2.78-.48.37-1.75,1.11-2.91,1.69-2.24,1.13-2.98,1.6-4.14,2.59-.89.76-1.81,1.46-2.93,2.21-.44.3-1.35.99-2.01,1.54-1.51,1.25-2.24,1.69-3.44,2.09-.51.17-1.63.65-2.47,1.05-2.02.97-3.33,1.48-4.9,1.9-1.63.44-1.85.63-2.15,1.85-.3,1.22-.38,2.31-.47,6.48-.12,5.42-.11,5.36-1.37,6.8-.32.37-.74.98-.93,1.35-.23.46-.82,1.18-1.82,2.22-.81.85-1.58,1.76-1.71,2.03-.34.69-.39,1.64-.16,2.76.26,1.28.59,2.13,1.03,2.62.68.76.63,1.01-.23,1.24-.25.07-.76.23-1.14.37-.62.23-.75.24-1.3.11l-.62-.14.63-.34c.79-.43.97-.75.7-1.31-.24-.51-.79-.87-1.08-.71-.11.06-.21.18-.21.27,0,.21-.54.63-.81.63-.12,0-.89.23-1.72.51-.83.28-2.01.58-2.63.68-.78.12-1.22.24-1.48.43-.34.24-.5.27-1.8.28-.78.01-1.71-.03-2.05-.08h0ZM57.61,213.38c.31-.13.57-.3.57-.38s-.23-.28-.51-.43c-.68-.38-2.11-.47-2.95-.19-.36.12-.94.19-1.52.19-2.85,0-2.74-.01-2.53.22.23.26,1.03.53,2.14.74,1.26.24,4.07.15,4.81-.15h0ZM60.92,206.86c1.8-1,2.37-1.42,2.92-2.16,1.13-1.54,1.19-1.7,1.19-3.37,0-1.32-.03-1.55-.27-2.08-.15-.33-.29-.58-.32-.56-.03.03-.12.76-.22,1.63-.18,1.68-.48,2.97-.85,3.69-.33.65-1.46,1.82-1.75,1.83-.26,0-1.2.45-2.01.96-.45.29-.49.33-.29.42.34.14.96,0,1.59-.35h0ZM25.05,199.54c0-.25-1.3-1.12-1.68-1.12s-.33.31.18.81c.39.39.51.44.97.44.32,0,.53-.05.53-.13h0ZM6.07,196.97c0-1.72,0-1.79-.25-1.9-.38-.17-1.02,0-1.29.34-.61.77.02,2.42,1.19,3.13.19.11.34.21.34.21v-1.78h0ZM17.83,183.01c.19-.58.3-2.18.16-2.39-.1-.15-.15-.13-.34.09-.29.35-.46.96-.46,1.71,0,1.03.38,1.38.64.58h0ZM55.44,169.88c.39-.56.1-1.57-.44-1.57-.34,0-.58.53-.48,1.1.12.73.58.97.93.48ZM60.93,167.52c.24-.18.65-.51.9-.73l.46-.4-.5-.21c-.39-.17-.58-.35-.86-.84-.21-.36-.46-.64-.59-.66-.2-.03-.24.1-.43,1.32-.17,1.06-.18,1.41-.08,1.6.18.34.57.31,1.11-.09h0ZM64.09,165.34c.24-.19.3-.33.3-.73,0-.27-.05-.62-.1-.76-.14-.37-1.15-1.47-1.28-1.4-.06.04-.1.46-.1.95s-.08,1.14-.17,1.45c-.09.31-.17.6-.17.65,0,.05.27.09.61.09.45,0,.69-.06.91-.24h0ZM70.25,163.46c1.32-.65,2.48-.89,4.05-.83,1.07.04,1.49.11,2.17.35.47.17.98.31,1.14.31.45,0,.99-.39,1.32-.96.38-.64,2.14-2.21,3.01-2.67,2.09-1.11,6.37-1.33,10.61-.53.83.16,1.53.29,1.56.29s.01-.12-.02-.26c-.05-.21.04-.35.49-.73,1.42-1.19,2.26-1.53,4.13-1.62l1.31-.07.04-.3c.07-.57-.21-1.27-.67-1.71-.25-.24-1.33-.87-2.58-1.51-3.79-1.92-4.62-2.96-5.11-6.35-.31-2.16-.44-2.39-1.3-2.39-.74,0-1.81-.29-2.33-.64-.32-.21-.52-.49-.78-1.05-.19-.42-.52-.93-.74-1.13-.22-.2-.38-.43-.36-.51.11-.35.92-.6,1.94-.6,1.11,0,1.14-.02.77-.73-.31-.62-1.19-1.36-1.7-1.44-.23-.04-.75-.15-1.16-.25-1.25-.31-1.68-.61-1.55-1.11.09-.35.58-.53,1.44-.53.74,0,.95-.15.89-.65-.05-.48-.36-.46-2.12.12-.86.29-1.79.55-2.06.59-1.23.19-1.63,1.53-.74,2.46.24.25.29.41.29.91,0,.71-.33,1.67-.63,1.85-.29.17-.7-.32-.8-.95-.13-.78-.42-1.37-.77-1.56-.22-.11-.37-.32-.47-.65-.14-.46-.15-.4-.22,1.17-.04.91-.11,1.74-.15,1.85-.13.3-.58.24-.85-.1-.13-.16-.29-.6-.36-.97-.17-.86-.31-1.05-.92-1.19l-.49-.12v-1.21c0-1.11-.02-1.23-.27-1.49-.15-.16-.51-.34-.8-.42-.29-.07-.73-.23-.97-.36-.24-.12-.47-.2-.51-.16-.04.04.06.46.22.95.22.69.35.91.58,1.03.6.29,1.12,1.14.96,1.57-.08.22-.67.22-1.09,0-.17-.09-.46-.35-.63-.58-.39-.51-.51-.43-.85.5-.34.93-.32,1.33.1,1.8.37.42.45.99.23,1.73-.1.34-.09.37.09.29.11-.05.43-.11.71-.13.29-.03.58-.13.66-.23.08-.1.14-.5.14-.89,0-.55.05-.77.25-1.02.25-.32,1.1-.77,1.26-.67.15.09.1,1.85-.08,2.97-.42,2.59-1.18,3.24-1.59,1.38-.1-.45-.43-.59-.92-.38-.32.13-.47.31-.69.8-.16.35-.32.91-.35,1.26-.05.53-.03.67.16.88.32.35.36.55.19.89-.2.39-.77.63-1.17.49-.35-.12-.82-.94-.82-1.44,0-.17-.32-.94-.71-1.71-.96-1.88-1.31-2.08-1.25-.72.02.4-.02.86-.09,1.03-.1.26-.07.38.17.72.33.48.67,2.06.61,2.88-.04.53-.03.54.35.63.52.12.77.5.97,1.43.09.43.19.81.23.85.04.04.3-.05.59-.19.45-.22.56-.24.85-.12.69.29.64.41-.37.8-.52.2-1.13.39-1.36.42-.37.05-.44.02-.67-.32-.43-.63-.54-.68-.97-.47-.21.1-.46.15-.56.11-.3-.11-.86-1.46-.95-2.26-.08-.7-.09-.72-.42-.76-.19-.02-.7.06-1.14.19-1.4.39-2.4.53-2.97.4-.39-.09-.56-.08-.71.03-.18.13-.18.2-.04.81.09.37.16.87.17,1.11.01.44,0,.45-.58.64-1.42.46-1.55.7-1.55,2.78,0,.9.03,1.69.08,1.77.13.2.62.16.73-.07.14-.27.29-1.61.28-2.57,0-.75,0-.77.28-.77.16,0,.57.13.91.3.61.29,1.1.32,1.63.11.16-.06.19.07.24.99.04.67.13,1.2.25,1.43.19.37.6.57.94.44.27-.1.57.11.74.52.08.21.37.58.64.84.37.35.49.55.49.81,0,.38-.33.75-.83.94-.59.22-.75.16-.99-.38-.49-1.14-1.14-.89-1.3.49-.03.27-.14.58-.24.69-.1.11-.18.33-.18.5,0,.36.58.97,1.01,1.06.6.13.83.28,1,.68.11.27.24.4.4.4.36,0,.84-.33,1.08-.73.25-.43.37-.52.69-.52.43,0,.65.38.56.98-.04.29-.11.6-.14.69-.09.25.15.19,1.03-.24h0ZM68.07,161.29c-.56-.39-.07-1.22.57-.98.16.06.32.19.35.29.08.21-.1.75-.25.75-.06,0-.18.03-.26.06-.08.03-.27-.02-.41-.12h0ZM71.18,160.77c-.58-.32-.67-.86-.22-1.31.25-.25.37-.29.8-.24.64.07.96.35.96.83,0,.66-.88,1.07-1.54.71h0ZM69.91,158.46c-.67-.67-.47-1.6.34-1.6.56,0,.87.33.95.99.05.42.01.56-.18.75-.34.34-.66.3-1.11-.15h0ZM72.04,158.02c-.7-.36-.11-1.08,1.09-1.35.34-.08.62-.18.62-.23,0-.11-1.35-.79-1.55-.79-.28,0-.53-.54-.46-1,.09-.59.54-.97.96-.81.5.19.59.31.84,1.17.17.58.37.95.68,1.29.47.51.6.84.54,1.36-.05.4-.3.47-.92.26-.36-.12-.51-.12-.81,0-.6.24-.69.25-.99.1h0ZM76.44,157.2c-.38-.81-.15-1.44.46-1.24.5.17.55.37.27,1.04-.14.33-.32.59-.4.59s-.23-.17-.33-.39h0ZM69.38,156.22c-.36-.11-.79-.29-.95-.4-.26-.17-.29-.24-.22-.65.14-.91-.58-1.39-.91-.61-.09.22-.17.49-.17.61s-.1.34-.21.48c-.18.23-.25.25-.49.14-.21-.1-.35-.34-.58-1.04-.17-.5-.27-1-.23-1.09.04-.1.38-.27.77-.38l.7-.21-.34-.22c-.28-.19-.51-.22-1.4-.19-1,.03-1.08,0-1.34-.25-.22-.22-.28-.4-.28-.86,0-.49.05-.64.37-.98.63-.69,1.68-.74,2.51-.13.18.14.54.63.78,1.1.71,1.36.92,1.53,1.97,1.66l.67.08-.44.38-.44.38.6.61c.55.56.83,1.09.83,1.6,0,.25-.3.25-1.17-.03h0ZM75.72,155.02c-.36-.25-.72-.89-.72-1.28,0-.49.35-.75,1.06-.8,1.09-.08,1.69.58,1.3,1.41-.2.42-.78.84-1.16.84-.13,0-.34-.08-.48-.17h0ZM74.45,152.35c-.31-.13-.61-.78-.52-1.11.03-.13.27-.32.54-.45.46-.21.48-.24.51-.79.05-.78-.18-2.05-.45-2.38-.33-.41-.28-.94.12-1.33.39-.39.82-.43,1.15-.11.18.18.23.38.23.89,0,.42.15,1.15.41,2.02.22.75.43,1.7.47,2.11.09,1.01-.08,1.16-1.3,1.22-.49.02-1-.01-1.14-.07h0ZM81.62,151.12c-.19-.15-.25-.34-.27-.78-.02-.43-.12-.72-.39-1.13-.36-.54-.37-.58-.34-1.68.01-.62.07-1.15.12-1.18.19-.11.55.1.72.42.09.18.34.42.54.52.2.1.49.29.63.42.24.22.25.3.19,1.05-.06.69-.04.9.18,1.4.14.33.22.67.19.77-.15.4-1.14.53-1.55.2h0ZM72.29,150.61c-.24-.24-.15-.56.25-.96.29-.29.49-.39.78-.39.46,0,.81.32.75.7-.08.56-1.39,1.04-1.78.65h0ZM84.89,149.02c-.42-.15-.5-.55-.24-1.09.16-.33.28-.43.49-.43.36,0,.8.63.8,1.14s-.35.63-1.06.38h0ZM59.21,163.17c.24-.39-.42-1.59-.87-1.59-.3,0-.38.25-.22.73.25.77.86,1.24,1.09.86ZM61.15,160.88c.09-.18.22-.59.28-.92.16-.86.25-.93,1.08-.84.51.05.73.04.82-.07.07-.08.2-.58.3-1.11.1-.53.26-1.04.35-1.15.1-.11.17-.25.17-.33,0-.18-.34-.7-.46-.7-.21,0-.44.38-.68,1.09-.32.95-.67,1.37-1.47,1.72-.87.38-1.04.55-.93.93.05.17.02.57-.05.89-.21.92.18,1.25.58.48h0ZM59.24,159.12c.35-.25.32-.43-.14-.83-.25-.22-.37-.41-.33-.52.09-.23.01-.22-.53.05-.81.41-.84.98-.08,1.32.48.21.77.2,1.08-.01h0ZM56.85,156.24c.39-1.02.25-1.53-.62-2.24-.63-.51-1.03-.71-1.16-.58-.04.04-.11.42-.15.84-.06.68-.04.83.23,1.33.22.42.42.63.79.82.57.29.75.25.91-.17h0ZM61.73,151.66c-.1-.25-.19-.59-.19-.75s-.08-.67-.18-1.14-.14-.96-.1-1.08.27-.36.52-.52c.25-.16.45-.35.45-.42,0-.12-1.11-.89-1.51-1.04-.12-.05-.22-.02-.25.08-.03.08-.07,1-.09,2.03l-.04,1.88.73.78c.4.43.76.75.79.72.03-.03-.03-.26-.13-.52h0ZM114.28,152.05c.24-.09.52-.64.52-1.01,0-.22-.11-.36-.4-.53-.55-.33-.54-.72.05-1.4.36-.41.49-.69.64-1.38.11-.48.16-.9.12-.94s-.41.04-.82.19c-.65.23-.77.25-.91.1-.29-.29-.32-.91-.06-1.24.36-.46.96-.5,2.61-.15.34.07.37.05.37-.2,0-.5-.3-.78-.85-.78s-.79-.19-.73-.59c.03-.2.13-.28.44-.33.56-.09.68-.19.68-.55,0-.3-.59-1.26-.78-1.26-.05,0-.32-.21-.6-.47-.28-.26-.73-.57-1-.69-.68-.3-.78-.62-.49-1.49.13-.37.2-.73.17-.78-.03-.05-.22-.18-.41-.28-.34-.18-.34-.19-.27-.85l.08-.68h-.44c-.81,0-.94-.47-.35-1.25.72-.95.78-1.07.72-1.46-.03-.2-.17-.53-.31-.73-.3-.42-1.39-1.15-2.13-1.42-1.78-.65-3.26-1.26-4.65-1.91-.87-.41-1.74-.78-1.92-.82-.72-.17-1.16-.5-1.74-1.29-.69-.94-1.72-1.75-2.59-2.02-.5-.16-.64-.17-.79-.05-.3.25-.21,1.11.27,2.58.41,1.25.43,1.37.26,1.51-.58.45-1.11.22-1.53-.69-.43-.92-.58-1.72-.49-2.63.05-.53.03-.85-.06-.95-.21-.25-.77-.19-1.08.12-.25.25-.28.38-.28,1.11,0,1.09.49,3.86.76,4.33.17.29.32.39.72.47.65.13.74.2.91.82.25.88,1.09,1.52,4.79,3.65,2.77,1.59,3.93,2.16,5.03,2.43.45.11.86.28.91.37.06.09.1.35.1.58,0,.58-.27.73-1.59.89-1.54.18-2.24.39-2.32.71-.14.51-.08,2.77.08,2.98.09.12.46.27.94.37.99.2,1.62.59,3.16,1.95.91.8,1.29,1.22,1.61,1.8.47.83,1.38,2,2.48,3.17.72.77.83.83,1.17.7h0ZM111.97,142.23c-.25-.1-.16-.59.14-.79.4-.26.78-.17.91.22.09.27.08.35-.11.48-.22.16-.66.2-.94.08h0ZM65.45,147.02c.26-.28,1.18-.6,1.71-.6.35,0,.7-.15,1.03-.43.19-.17.19-.19-.11-.51-.29-.3-.32-.41-.36-1.41-.03-.73,0-1.13.1-1.25.11-.14.05-.2-.36-.38-.81-.34-1.09-.38-1.29-.18-.25.25-.23.7.04.84.12.06.35.47.52.9.28.74.29.82.15,1.39-.21.83-.36.9-1.29.57-.75-.26-.77-.27-.93-.05-.21.28-.13,1.4.15,2.1l.21.51.09-.62c.06-.38.19-.72.34-.89h0ZM62.82,144.92c-.02-.4,0-.83.03-.97.1-.42.69-.73,1.75-.95l.99-.2-.4-.17c-.22-.1-.54-.34-.71-.53-.32-.38-.37-.58-.49-1.86-.09-1.03-.43-1.66-1.08-2.04-.37-.21-.51-.37-.52-.55,0-.34-.32-.52-.62-.35-.4.21-.29.78.41,2.13.35.68.79,1.38.97,1.55.42.41.53.83.32,1.21-.2.36-.61.44-.91.17-.12-.11-.33-.5-.46-.86-.28-.76-.43-.93-.81-.88-.4.06-.38.4.09,1.83.32.97.43,1.52.46,2.2.03.78.07.94.28,1.11.22.18.28.18.49.04.21-.14.24-.26.21-.88h0ZM59.98,145.05c.36-1.03.35-1.25-.04-1.4-.43-.16-1.35-3.02-1.35-4.18,0-.82-.21-1.15-.75-1.15s-.59.2-.24,1.29c.16.51.37,1.34.46,1.85.1.54.42,1.51.76,2.34.33.78.64,1.54.7,1.69.13.33.23.23.47-.45h0ZM93.29,143.32c.45-.91,1.03-1.36,2.27-1.75,1.15-.36,1.35-.49,2.1-1.31.41-.45.88-.8,1.51-1.13.5-.26.92-.5.92-.54,0-.21-.34-.57-1.17-1.22-.52-.41-1.17-.98-1.45-1.27-.54-.56-.73-.62-1.03-.35-.27.25-1.24.4-2.53.4s-1.79.16-2.08.59c-.1.15-.29.73-.43,1.29-.57,2.32-.15,5.28.88,6.08.4.31.5.23,1.01-.8h0ZM102.71,143.79c.29-.29.29-.47-.05-1.8-.15-.61-.36-1.54-.46-2.06-.17-.92-.32-1.26-.53-1.26-.05,0-.29.17-.53.38-.24.21-.7.52-1.03.69-.38.19-.69.45-.83.69-.15.26-.47.51-.96.76-.4.21-.74.44-.74.51,0,.19,1.01,1.1,1.63,1.46,1.3.76,3.05,1.08,3.5.63h0ZM72.33,142.97c.4-.32.73-.6.73-.62s-.31-.09-.69-.17c-1.25-.25-2.14-1.05-2.02-1.83.06-.41-.13-.58-.62-.53-.56.05-.58.5-.04,1.1.27.3.44.62.5.97.12.64.85,1.68,1.18,1.68.13,0,.56-.27.96-.59h0ZM67.64,138.98c.31-.45.22-.75-.42-1.38-.33-.32-.68-.75-.79-.95-.1-.2-.39-.47-.64-.59-.25-.13-.48-.31-.52-.41-.13-.34.26-.97.61-.97.28,0,.65-.45.81-.99.19-.63.02-.9-.88-1.37-1.51-.81-1.75-1.11-2.82-3.59-.22-.51-1.01-1.11-1.46-1.11-.65,0-.88.21-1.25,1.18-.65,1.69-1.46,3.12-2.69,4.74-.92,1.21-.95,1.61-.15,1.84.21.06,1.64.11,3.16.11,1.71,0,2.86.05,3,.12.12.07.33.35.46.63.15.32.42.64.74.86.5.34.54.41.51.85-.02.28.15.44,1.01.92.78.43,1.08.46,1.32.13h0ZM71.92,138.2c0-.55-.19-.8-1.34-1.65-1.13-.85-1.62-.97-1.62-.42,0,.18.08.56.18.86.1.3.16.63.13.74-.05.18,0,.19.36.09.66-.18,1.41.21,1.75.89l.26.53.14-.32c.08-.18.14-.5.14-.73h0ZM81.45,135c1.34-.44,1.78-.69,1.59-.87-.05-.05-.73-.1-1.53-.12-1.79-.05-2.24.08-2.56.69-.47.92.35,1.01,2.49.3h0ZM115.95,134.87c.33-.26.45-.63.45-1.5,0-1.01-.22-1.18-.48-.38-.1.31-.27.54-.48.66-.51.28-.59.72-.2,1.17.2.23.46.25.72.05h0ZM76.34,133.24c.27-.11.47-.22.45-.24-.02-.02-.83-.2-1.8-.39-3.85-.76-5.68-1.67-7.39-3.68-1.7-1.99-2.06-2.18-2.06-1.06,0,.77.25,1.11,1.07,1.5.33.15,1.08.69,1.67,1.19,1.37,1.16,1.93,1.45,4.35,2.3,2.16.75,2.68.81,3.72.39h0ZM115.29,132.5c.17-.13.35-.44.42-.71.08-.3.26-.59.49-.78.35-.3.36-.33.36-1.23,0-.84-.02-.92-.23-.92-.41,0-.79-.28-1.03-.74-.24-.46-.54-.68-1.1-.79-.4-.08-.39-.21.01-.73.45-.57.75-1.18,1.04-2.15.37-1.22.3-1.27-.63-.49-.44.37-.84.68-.9.68-.2,0,.02-1.43.34-2.19.18-.42.29-.8.25-.83-.1-.1-.81.23-1.02.47-.1.12-.26.37-.36.56l-.17.34-.14-.51c-.16-.58-.08-.78.38-1,.25-.12.29-.2.23-.43-.04-.16,0-.51.07-.8.19-.68.09-.76-.72-.59-.95.2-1.01.1-.56-1.09.38-1.01.44-1.57.22-1.98-.18-.32-1.34-1.52-1.72-1.78-.43-.29-.39-.79.11-1.63.55-.91.58-1.16.27-2.12-.35-1.08-1-1.8-1.63-1.8-.33,0-.51.09-.89.46-.51.5-.85.63-1.34.53-.44-.09-1.07.1-1.48.45-.46.39-.9,1.33-.99,2.14-.07.59-.05.7.2,1.03.25.34.27.45.24,1.48-.03.94,0,1.24.25,1.96.16.47.37,1.43.48,2.13.18,1.18.23,1.31.57,1.63.87.82,2.4,3.52,2.28,4.01-.04.15-.22.44-.41.66-.42.47-.42.63-.05,1.62.16.43.26.89.23,1.03-.05.22,0,.27.46.38,1.29.33,2.88,1.36,4.57,2.99,1.13,1.09,1.37,1.19,1.9.77h0ZM108.03,118.14c-.22-.19-.7-.72-1.07-1.17l-.67-.82-.04-1.95c-.04-2.15.05-2.61.6-2.97.64-.42,1.08,0,1.31,1.25.2,1.06.17,1.29-.23,1.69-.24.24-.31.37-.21.41.3.1,1.16.99,1.38,1.42.3.59.38,1.4.19,1.96-.13.39-.2.46-.51.49-.27.03-.46-.05-.76-.32h0ZM139.78,132.15c.13-.13.22-.32.2-.43-.04-.2-.12-.22-1.57-.48-.41-.07-1.43-.39-2.28-.7-2.96-1.09-4.96-1.51-8.04-1.69-2.25-.13-3.29-.29-6.31-.92-1.21-.26-2.27-.44-2.35-.41-.08.03-.21.35-.29.7-.19.87-.1.98.9.98,1.84,0,4.49.39,8.61,1.26,1.44.3,3.55.69,4.68.86,1.13.17,2.9.47,3.93.68,2.27.46,2.22.45,2.52.16h0ZM86.38,132.04c.4-.06.96-.21,1.25-.32.49-.19.51-.22.25-.27-.16-.03-.96-.09-1.79-.13-1.47-.07-1.53-.06-2.2.24-.71.32-.87.57-.43.65.36.07,2.06-.02,2.91-.16h0ZM90.63,130.84c.32-.34.25-.53-.35-.94-.49-.33-1.3-.34-2.06-.01-.31.13-.56.29-.56.34s.24.1.54.1c.78,0,1.35.19,1.56.51.24.36.52.36.87,0h0ZM79.62,130.17c.12-.09.2-.18.16-.21-.03-.03-.64-.24-1.36-.47-2-.66-4.02-1.6-4.65-2.19-.3-.27-.76-.58-1.03-.69-.47-.18-.5-.18-.8.04-.62.46-.43,1.04.49,1.58.58.33,3.51,1.34,4.95,1.7,1.77.44,1.95.46,2.24.24h0ZM86.05,128.97c2.24-.39,2.85-.41,3.48-.13.74.33,1.01.31,1.36-.11.33-.4.38-.73.11-.83-.1-.04-1.17-.07-2.38-.07-2.14,0-2.23,0-3.24.34-.57.19-1.18.34-1.36.34-.37,0-.83.28-.83.52s1.25.21,2.84-.06h0ZM141.94,128.6c.36-.59.26-1.29-.17-1.21-.25.05-.9,1.18-.81,1.41.04.1.21.17.41.17.27,0,.4-.08.57-.37h0ZM68.55,127.02c-.48-.57-.93-1.01-1-.99-.2.07-.12.76.12,1.09.21.28,1.3.91,1.6.92.08,0-.25-.46-.73-1.03h0ZM139.07,127.84c.45-.24.9-1.45,1.32-3.54.62-3.09,1.16-4.77,1.72-5.36.17-.18.34-.58.46-1.08.28-1.23.42-1.47,1.01-1.74.67-.31.81-.54,1.1-1.79.2-.85.49-1.67,1.22-3.45.1-.23-.2-.16-.61.15-.25.19-.42.45-.5.77-.25.96-.65,1.22-1.24.81-.36-.25-.69-1.02-.69-1.6,0-.55.32-1.65.78-2.68.63-1.39,1.81-4.61,2.11-5.74.29-1.09.75-2.15,2-4.5.79-1.5,1.24-2.69,2.25-5.99,1.13-3.7,1.26-4.2,1.38-5.33.08-.75.2-1.14.56-1.86.6-1.19,1.14-2.8,1.85-5.52.7-2.67,1.27-4.39,2.22-6.74.39-.97.78-2.05.86-2.39.1-.43.27-.75.54-1.03.54-.55,3.46-6.4,3.85-7.73.37-1.25.97-2.94,1.36-3.89.17-.4.34-.97.39-1.26.05-.33.31-.91.66-1.5.75-1.25,1.3-2.35,1.85-3.72.25-.61.7-1.66,1.02-2.31,1.22-2.57,2.13-5.99,1.75-6.59-.07-.11-.13-.1-.27.06-.33.38-.74,1.12-1.11,2.03-.21.5-.58,1.32-.83,1.81-.37.74-.47,1.08-.54,1.88-.16,1.7-.57,2.88-1.89,5.49-.3.59-.65,1.38-.78,1.75-.27.78-.69,1.14-1.02.87-.42-.35-.09-2.31.68-3.94.79-1.69,1.27-2.92,1.66-4.24.19-.65.65-1.8,1.03-2.57.92-1.88,1.09-2.46.91-3.25-.07-.33-.17-.61-.22-.61-.12,0-.96,1.63-1.38,2.68-.2.5-.96,2.07-1.69,3.48-1.73,3.33-1.99,3.88-2.3,4.87-.14.45-.57,1.38-.95,2.05-.95,1.71-1.68,3.22-1.68,3.5,0,.72-1.26,2.33-2,2.58-.43.14-.97.7-1.3,1.36-.13.25-.42.59-.66.77-.58.43-.77.67-1.12,1.4-.16.34-.49.81-.72,1.04-.89.86-2.36,4.96-2.76,7.69-.18,1.22-.58,2.56-1.27,4.28-.32.78-.69,1.9-.84,2.49-.15.62-.41,1.28-.61,1.6-.45.71-.67,1.32-.92,2.66-.14.71-.36,1.39-.63,1.94-.23.46-.65,1.51-.92,2.32-.28.82-.7,2.07-.94,2.79-.24.72-.71,1.87-1.03,2.56-.45.94-.66,1.58-.88,2.62-.28,1.36-.49,1.96-1.63,4.74-.84,2.04-1.36,4.23-2.21,9.35-1,5.99-1.32,7.17-2.15,7.79-.6.45-1.17.54-2.85.46-1.69-.08-4.98.1-6.46.37-.79.14-1.1.15-1.8.03-.53-.09-1.13-.1-1.61-.05-.42.05-1.07.12-1.44.16-.38.04-.7.13-.72.21-.06.19,10.25.2,11.73.01,1.14-.15,1.91-.07,2.29.23.38.31.15.7-.63,1.09-.61.3-.65.3-1.53.17-.5-.07-1.26-.1-1.69-.06-.43.04-3.51.11-6.83.15-6.59.09-6.65.09-6.5.69.09.37.36.68.74.87.53.27,13.81.08,16.34-.24.64-.08,1.07.07,1.5.52.25.26.29.36.19.55-.07.12-.29.26-.49.3-.6.13-4.18.29-6.53.29-2.24,0-2.37.05-1.14.4.54.15,1.45.21,4.39.28,4.04.1,4.48.16,4.79.72.16.28.16.35,0,.62-.1.18-.33.36-.56.42-.48.14-3.61-.06-6.06-.39-1.07-.14-1.97-.21-2.28-.16-.49.07-1.44.48-1.35.57.03.03.81.15,1.75.28.94.13,2.64.44,3.79.68,1.15.25,2.63.5,3.31.56.67.07,1.4.14,1.62.16.6.07,1.55-.01,1.81-.15h0ZM142.44,104.38c-.04-.23-.05-.81-.01-1.28.09-1.22,1.13-5.27,1.79-6.97.3-.79.63-1.79.73-2.22.24-1.06.44-1.65,1.15-3.47.33-.85.66-1.82.74-2.17.08-.34.62-1.86,1.2-3.36.8-2.06,1.16-3.19,1.47-4.56.33-1.45.56-2.14,1.11-3.36.6-1.32.72-1.71.9-2.85.54-3.49.54-3.47,1.25-3.07.24.14.47.32.51.41s-.14.61-.39,1.15c-.25.54-.54,1.32-.64,1.72-.1.41-.33,1.28-.51,1.94-.18.66-.44,1.86-.57,2.68-.42,2.62-.87,4.16-2.26,7.6-1.12,2.79-2.3,6.71-2.3,7.64,0,.21-.24,1.05-.52,1.86-1.13,3.2-1.44,4.17-1.87,5.79-.47,1.76-.66,2.25-1.06,2.68-.36.39-.63.33-.72-.16h0ZM152.77,70.13c-.43-.43-.25-1.12.35-1.37.33-.14.38-.13.57.11.3.38.26.77-.12,1.16-.39.39-.5.41-.81.11h0ZM81.84,127.53c1.4-.27,3.76-.49,6.73-.62,4.52-.2,5.02-.26,5.32-.6.14-.16.32-.59.39-.95.21-1,.38-1.24,1.4-1.91,1.21-.8,1.57-.86,2.75-.45.82.29,1,.31,2.11.25,1.81-.09,2.61-.46,2.13-.98-.36-.4-.92-.51-2.23-.43-.66.04-1.57.02-2.01-.04-.61-.08-.96-.06-1.43.06-.35.09-1.14.16-1.81.17-.68,0-1.81.1-2.62.24-.86.14-2.06.25-3.02.27-1.57.03-2.28.15-3.49.58-1.12.4-2.95.75-4.38.84-1.36.08-1.57.12-2.51.52-1.39.58-2.74,1.13-3.39,1.36-.99.36-.82.97.29,1.07.6.05.63.04.8-.29.31-.6,1.15-.82,5.71-1.5,7.05-1.05,11.35-1.26,11.35-.57,0,.49-3.63,1.2-6.56,1.28-1.25.04-1.96.12-3.25.41-2.07.45-1.99.44-3.42.58-1.47.14-2.28.39-2.28.69,0,.12.09.24.2.27.32.09,2.29-.04,3.22-.22h0ZM105.9,127.14c.27-.27.3-.63.05-.73-.27-.1-1.76-.08-1.76.02,0,.16.5.57.91.75.52.22.53.22.8-.05h0ZM121.87,125.83c-.51-.3-1.75-.63-2.07-.56-.33.07-.51.34-.3.47.26.16.86.25,1.74.25.85,0,.89,0,.63-.16h0ZM103.97,124.98c1.05-.29.96-.69-.2-.81-.43-.05-1.06-.12-1.4-.16-1.11-.13-1.38.41-.45.89.44.22,1.41.26,2.05.09h0ZM124.77,124.53c.82-.13,1.61-.26,1.77-.3l.29-.07-.29-.11c-.77-.3-2.3-.56-3.89-.68-2.51-.18-2.89-.17-3.23.05-.53.35-.28,1.1.42,1.32.54.17,3.22.05,4.93-.22h0ZM76.38,123.91c.35-.14.79-.37.97-.5.18-.13.87-.39,1.53-.58.66-.19,1.76-.61,2.44-.93,1.37-.64,2.29-.91,4.35-1.25,3.31-.56,5.86-.77,10.57-.86,2.76-.05,6.23-.31,6.5-.48.14-.09.11-.43-.1-.91-.15-.35-.19-.91-.22-2.67-.03-2.16-.03-2.25.3-3.36.18-.63.41-1.43.51-1.79.1-.36.43-1.03.73-1.48.89-1.36,1.13-1.45,5-1.81,1.3-.12,1.42-.11,1.82.09.24.12.57.42.74.67.51.74,1.26,3.21,1.8,5.88.07.36.25.82.4,1.03.68.93.86,1.27.98,1.8.18.82.54,1.31,1,1.35.22.02.46-.03.57-.14.28-.25,1-.38,2.92-.52,1.22-.09,2.07-.09,2.96,0,2.42.23,4.19.14,7.7-.41,1.91-.3,3.57-.39,4.13-.24.53.15.66-.12.66-1.33,0-.78.07-1.29.27-1.97.28-.94.54-2.35,1.04-5.74.52-3.47,1.23-6.21,2.41-9.19.39-.99.82-2.4,1.14-3.71.67-2.77.85-3.31,1.7-5.07.39-.82.85-1.97,1.02-2.56.3-1.06,1.01-2.81,1.69-4.16.24-.49.39-1.01.5-1.82.21-1.55.51-2.51,1.24-3.99.59-1.2.62-1.31.73-2.57.33-3.76.23-3.31,1.15-5.07.45-.88,1-2,1.21-2.49s.58-1.24.83-1.65c.25-.42.96-1.74,1.59-2.94.63-1.2,1.39-2.56,1.68-3.01.89-1.38,1.55-2.73,3.22-6.5,1.82-4.1,2.59-6.02,3.45-8.6.43-1.3.7-1.91.92-2.14.48-.49,1.23-3.06,1.48-5.04.14-1.11.51-1.98,1.12-2.65.56-.6.64-1.02.47-2.34-.16-1.23-.3-1.57-.69-1.68-.44-.12-1.91-.08-2.65.08-.49.1-.98.11-2.06,0-1.41-.13-2.98-.04-4.13.23-.25.06-1.28.11-2.29.11-1.6,0-1.91.03-2.36.23-.52.23-.53.23-1.01.01-1.06-.48-6.49-1.38-9.67-1.6-.91-.06-4.37-.11-7.7-.1-7.45.02-8.44-.08-12.83-1.29-2.46-.68-3.98-.84-4.97-.53-.37.12-1.2.2-2.44.23-2.63.08-3.47.33-5.02,1.48-1.48,1.1-3.16,1.78-4.47,1.78-.5,0-.78.24-.78.67,0,.3-.22.78-.59,1.3-.11.15-.43,1.13-.72,2.18-.29,1.05-.85,2.72-1.25,3.7-.82,2.04-1.31,3.64-1.64,5.4-.19,1-.35,1.45-.93,2.61-.5.99-.77,1.7-.93,2.43-.16.75-.4,1.35-.84,2.18-.34.63-.74,1.53-.89,2-.15.47-.48,1.37-.73,2-.29.73-.48,1.43-.53,1.94-.12,1.24-.34,2.18-1.1,4.72-.77,2.58-1.34,4.18-2.32,6.5-.35.84-.8,2.12-.99,2.85-.2.74-.6,1.83-.9,2.47-.71,1.46-1.07,2.75-1.37,4.82-.25,1.7-.43,2.46-.94,3.85-.34.92-.37,1.39-.13,2.18.16.54.16.57-.07.76-.13.11-.52.28-.86.38-.34.1-.61.2-.61.23s.27.17.6.32c1.01.45,1.25.9.75,1.43-.19.21-.33.25-.63.2-.75-.12-.58.39.21.63,1.18.35.63,1.53-.81,1.75-.29.04-.57.11-.62.14-.18.11.3.48.85.67.59.2.78.42.78.91,0,.3-.49.88-.97,1.15-.21.12-.21.17-.08.66.08.29.14.76.14,1.05,0,.52-.26,1.19-.45,1.19-.29,0-.46.39-.46,1.04,0,.61-.04.72-.35,1.04-.31.31-.34.39-.23.62.28.61-.03,1.34-.74,1.76l-.4.24.31.33c.22.23.31.45.31.72,0,.71-.52,1.05-1.78,1.19l-.83.09.5.14c1.08.31,1.37,1.13.65,1.83l-.39.38.23.52c.4.91.1,2.45-.65,3.35-.27.32-.28.4-.22,1.06.06.62.03.86-.27,1.73-.19.56-.46,1.67-.59,2.48-.36,2.18-.8,3.1-2.18,4.6-1,1.08-1.08,1.59-.56,3.35.37,1.25.91,1.5,2.18.98h0ZM21.16,118.03c2.09-.13,5.33-.29,7.18-.36,3.15-.11,5.13-.31,4.86-.47-.42-.26-1.84-.37-5.02-.39-1.88-.01-3.96-.06-4.62-.1-1.6-.11-5.6.13-6.94.41-1.72.35-3.38.47-7.08.48-3.55.01-3.99-.04-3.99-.43s.55-.56,2.15-.62l1.55-.06-.68-.21c-.38-.12-1.1-.44-1.61-.71-.51-.28-1-.47-1.08-.44-.37.15-1.92,2.62-1.92,3.06,0,.21.19.21,6.7.16,4.94-.04,7.7-.12,10.51-.3h0ZM39.92,117.91c-.36-.14-3.3-.6-3.54-.55-.27.06.83.43,1.6.55.84.12,2.24.12,1.94,0h0ZM43.58,116.66c.22-.36-2.01-.97-4.19-1.14-3-.24-3.93-.36-5.48-.7-1.64-.36-1.88-.35-1.73.12.11.34.71.67,1.55.86.94.21,2.95.41,4.2.41.95,0,3.36.25,4.28.45.64.14,1.29.14,1.37.01h0ZM30.18,115.71c.29-.15.61-.89.51-1.16-.07-.19-.64-.4-1.08-.4-.68,0-1.08,1.15-.54,1.53.3.21.73.23,1.1.03h0ZM50.71,115.12c.23-.28-.31-.51-1.94-.81-1.72-.32-1.7-.32-1.7-.17,0,.27,2.39,1.13,3.21,1.14.16,0,.36-.07.44-.16h0ZM15.48,114.66s-.24-.2-.54-.37c-.46-.27-.66-.32-1.34-.31-.69,0-1.87.2-2.14.36-.05.03-.03.12.04.21.11.13.54.16,2.06.16,1.06,0,1.92-.02,1.92-.05h0ZM9.37,113.22c.35-.13.61-.27.58-.32-.03-.05-.45-.21-.93-.36l-.88-.27-.21.27c-.65.8.14,1.17,1.44.69h0ZM30.26,113.06c1.46-.1,2.7-.24,2.96-.33.4-.15.06-.16-3.45-.17-2.83,0-3.99.03-4.22.13-.19.08-1.14.16-2.32.2-1.86.06-1.95.07-1.37.19.92.19,5.52.18,8.4-.02h0ZM21.8,111.37c.56-.09,1.64-.2,2.39-.25,1.83-.12,1.35-.26-1.31-.39-1.54-.08-2.24-.17-3.08-.39-1.32-.35-2.6-.39-3.19-.1-.6.3-.58.56.06.84,1.29.57,2.83.66,5.13.29h0ZM61.26,110.99c.38-.16,1.06-.45,1.52-.64.55-.23.87-.43.93-.59.09-.25,1.93-1.82,2.74-2.34.24-.16.5-.42.57-.58.07-.16.66-.72,1.32-1.24,2.07-1.64,2.5-2.26,2.88-4.11.28-1.37.63-2.19,1.12-2.62.47-.41.72-.43,1.14-.07.29.25.32.34.32,1.05,0,.65-.07.93-.41,1.69-.73,1.62-.69,2.38.13,2.8.57.29.6.29.53-.08-.03-.18.03-.47.15-.71.12-.24.26-.88.34-1.55.16-1.52.58-3.22,1.15-4.71.88-2.29,1.1-3.05,1.7-5.67.33-1.44.79-3.24,1.03-3.99.24-.75.57-1.91.74-2.57.16-.66.76-2.6,1.32-4.32,1.07-3.26,1.38-4.38,1.28-4.64-.08-.21-.54-.3-.89-.17-.36.14-.52.52-.52,1.25,0,.34-.11.8-.29,1.19-.16.36-.41,1.28-.57,2.05-.15.77-.48,1.94-.73,2.59-.66,1.76-.89,2.49-1.33,4.37-.22.94-.59,2.33-.81,3.08-.65,2.17-2.21,6.59-2.4,6.81-.38.43-.96.14-1.11-.55-.13-.6.22-1.86,1.17-4.29,1.53-3.9,3-8.66,3.2-10.36.13-1.15.1-1.05.93-2.85.78-1.69,1.09-2.82,1.24-4.54.13-1.53.33-2.31.99-4,.72-1.81.92-2.79.74-3.61-.08-.35-.18-.66-.24-.69-.05-.03-.16.21-.23.54-.35,1.55-.88,2.9-1.73,4.42-.66,1.17-.93,2.17-1.18,4.35-.22,1.92-.46,3.25-1.02,5.74-.5,2.21-.76,3.05-1.25,4.04-.78,1.57-1.33,3.17-2.17,6.39-.62,2.37-.77,2.67-1.32,2.72-.3.03-.46-.03-.67-.25-.38-.4-.34-1.1.15-2.64.21-.68.42-1.47.47-1.76.18-1.16.89-3.59,2.34-8.04,1.09-3.33,1.11-3.41,1.37-5.59.37-3.02.53-3.55,1.99-6.5.34-.69.73-1.68.85-2.19.27-1.1.44-3.04.37-4.28-.05-.81-.03-.91.23-1.21.15-.18.52-.92.82-1.64.33-.8.72-1.53,1-1.87.25-.3.6-.84.77-1.18.7-1.38,1.6-4.67,2.39-8.69.41-2.1.54-2.53,1.14-3.94.4-.92.73-1.91.81-2.37.25-1.44.76-2.04,1.19-1.38.15.22.16.4.06,1.11-.32,2.33-.89,4.98-1.32,6.15-.1.28-.51,1.77-.9,3.31-.39,1.54-.86,3.12-1.02,3.52-.55,1.29-.58,2.48-.06,2.75.31.16.76.14,1.13-.05.4-.21.49-.43.34-.82-.19-.49.09-.66,1.07-.67.46,0,.9-.05.98-.1.29-.18.58-1.09.69-2.14.13-1.32.3-1.87,1.22-4.06.56-1.32.79-2.04.96-2.96.43-2.42.71-3.53,1.33-5.33,1.44-4.2,1.72-5.54,1.85-9.13.1-2.72.03-3.56-.35-4.09-.3-.42-1.83-1.72-3.58-3.02-3.01-2.26-5.1-3.42-8.78-4.9-1.13-.45-2.72-1.11-3.53-1.45-2.89-1.22-6.24-2.22-10.78-3.24-2.64-.59-4.41-1.12-6.96-2.08-1.1-.41-2.33-.86-2.75-.98-.41-.13-1.18-.43-1.71-.67-.53-.24-1.49-.6-2.13-.8-.65-.2-1.72-.62-2.39-.94-.67-.32-1.79-.82-2.49-1.13-.7-.3-1.6-.75-2-1.01-.75-.47-1.65-.85-3.01-1.27-.44-.14-1.48-.6-2.31-1.04-.83-.43-1.62-.79-1.74-.79-.27,0-.48.31-.81,1.2-.3.8-.47,1.1-.98,1.68-.52.6-.7.99-1.63,3.57-.45,1.25-1.3,3.28-1.88,4.5-.58,1.22-1.27,2.87-1.52,3.66-.78,2.44-1.83,6.36-2.07,7.76-.29,1.68-.61,2.91-1.46,5.57-1.3,4.04-1.8,6.31-2.18,9.86-.17,1.54-.42,2.91-.64,3.44-.1.24-.45.72-.78,1.06-.53.55-.68.84-1.29,2.39-.79,2.03-1.37,3.78-1.79,5.42-.55,2.14-1.39,4.28-2.53,6.44-.69,1.3-.93,2.22-1.13,4.39-.44,4.69-1.36,9.18-2.43,11.84-.31.77-.67,1.78-.81,2.25-.14.47-.4,1.19-.58,1.6-.39.9-.53,1.58-.68,3.32-.17,1.95-.8,3.88-2.74,8.48-1.94,4.59-1.87,4.39-1.63,4.63.12.12.73.34,1.41.51.66.16,1.95.54,2.86.85,3.66,1.22,9.28,2.14,15.61,2.57,3.47.23,4.54.35,5.6.63,1.44.37,3.56.6,4.93.54l1.24-.06.36.34c.47.46.84.6,2.12.82.6.1,1.61.36,2.25.58,2.02.68,6.52,2.66,7.73,3.4,1.12.69,1.16.7,1.95.7.86,0,1.13.12,1.31.58.14.37.8.82,1.73,1.19,1.03.41,1.55.41,2.43.04h0ZM86.35,55.47c-.51-.51-.29-1.42.67-2.73.13-.18.15-.32.06-.62-.17-.59.37-2.87.86-3.62.24-.37.67-.62.91-.53.26.1.18.7-.28,2.27-.19.63-.4,1.63-.47,2.22-.15,1.32-.47,2.48-.79,2.89-.27.34-.68.4-.95.12h0ZM88.74,47.1c-.43-.18-.56-.44-.44-.9.1-.42.11-.42.65-.4.64.02.88.18.88.6,0,.57-.55.92-1.09.7h0ZM88.94,44.86c-.66-.46.17-1.46.85-1.02.35.23.38.9.05,1.08-.31.17-.6.15-.89-.06h0ZM89.55,42.85c-.24-.34-.22-.77.06-1.55.41-1.12.47-1.43.49-2.31.02-1.3.5-1.82,1.34-1.47.57.24.61.56.23,1.75-.18.57-.42,1.37-.53,1.78-.47,1.79-1.1,2.5-1.59,1.8h0ZM87.09,39.05s.11-.28.25-.54c.14-.26.51-1.16.83-2,.32-.84.63-1.53.69-1.54.19-.03.19.83,0,1.68-.23,1.04-.63,1.9-1.03,2.22-.29.22-.74.34-.74.19h0ZM91.55,35.09c-.42-.21-.54-.47-.38-.81.27-.6,1.21-.47,1.44.19.21.58-.42.95-1.06.63ZM91.61,33.05c-.25-.36-.24-.46.21-1.45.25-.56.37-.97.33-1.16-.12-.62.67-.74.84-.13.05.17.09.75.09,1.3,0,.91-.02,1.02-.29,1.28-.16.16-.45.32-.64.36-.29.06-.39.02-.54-.19h0ZM66.71,110.55c.29-.22.64-.57.78-.77.14-.2.63-.78,1.07-1.29.45-.5.87-1.03.95-1.18.17-.31.09-.59-.16-.59-.26,0-3.43,3.03-3.65,3.49-.38.81.15.98,1,.33ZM34.32,110.26c.66-.07,1.35-.16,1.53-.21.3-.08.28-.1-.31-.22-.96-.2-2.19-.33-3.82-.41-.82-.04-1.66-.1-1.88-.13l-.4-.06.27.29c.31.33,1.03.6,2.01.74.97.14,1.24.14,2.59,0h0ZM12.08,108.99c.43-.14.78-.28.78-.31,0-.08-2.92-.69-3.28-.69-.14,0-.28.05-.32.11-.11.18.27.87.55,1.01.42.2,1.44.15,2.27-.11h0ZM40.87,108.94c.13-.39-3.45-1.31-3.68-.95-.16.25.27.48,1.5.81,1.25.33,2.09.38,2.17.14h0ZM25.7,108.72c.74-.1,1.36-.2,1.39-.23.03-.03-.2-.16-.51-.3-.76-.34-2.35-.42-3.42-.18-.43.1-1.27.23-1.87.3-.6.07-1.26.16-1.48.2-.39.07-.38.08.29.21.99.2,4.03.19,5.61-.01h0ZM44.5,107.19c.11-.18-1.98-.81-3.57-1.07-1.19-.2-3.39-.41-4.19-.4h-.57s.37.17.37.17c.75.33,2.41.75,4.04,1.02,2.65.45,3.76.53,3.92.28h0ZM20.55,106.41l.46-.09-.68-.14c-.38-.08-1.51-.19-2.51-.25-1.6-.1-3.65-.26-6.98-.55-.52-.04-.94-.05-.94-.01,0,.1.55.49,1.03.74.31.16.82.23,2.26.29,1.03.05,1.9.12,1.94.17.1.1,4.83-.03,5.43-.15h0ZM12.27,104.23c.12-.07-.03-.14-.5-.23-.37-.07-.97-.21-1.32-.3-.88-.22-.97-.21-.71.08.49.55.85.69,1.63.61.4-.04.81-.11.9-.17h0ZM148.68,103.18c.87-.63.99-.87,1.36-2.66.28-1.38.57-2.29,1.17-3.64.52-1.19.84-2.47.94-3.79.1-1.38.52-2.86,1.31-4.65.74-1.67,1.16-2.99,1.67-5.23.21-.94.27-1.38.19-1.47-.07-.07-.17-.09-.23-.05-.14.09-.58,1.29-1.69,4.57-.69,2.06-.87,2.7-.95,3.59-.09,1-.15,1.2-.81,2.57-.39.82-.98,2.3-1.3,3.31-.33,1-.83,2.37-1.13,3.04-.47,1.07-1.55,4.54-1.55,4.97,0,.18.04.16,1.04-.56h0ZM14.46,102.62c.12-.06.22-.16.22-.21s-.55-.23-1.23-.41c-.91-.23-1.64-.53-2.86-1.16-2.02-1.04-2.42-1.08-2.42-.19,0,.58.57.85,3.37,1.63,1.61.45,2.51.55,2.91.34h0ZM82.13,65.63c.25-.25.28-.38.28-1.12,0-.58.12-1.33.4-2.43.22-.87.4-1.7.4-1.85,0-.71-1.02.21-1.61,1.46-.31.65-.39,1.82-.23,3.07.17,1.29.25,1.38.76.87h0ZM20.42,54.18c.65-.97.83-1.39,1.55-3.63.77-2.36,1.25-4.26,1.25-4.89,0-.85-.35-.57-.51.41-.12.74-.57,1.95-1.2,3.19-.68,1.36-1.31,3.05-1.67,4.43-.32,1.26-.32,1.27-.11,1.27.09,0,.4-.35.68-.78h0ZM94.16,43.59c.2-.49.58-1.37.85-1.97,1.21-2.67,2.12-7.32,1.64-8.36-.07-.15-.25-.35-.41-.43-.36-.19-.6-.06-.88.52-.18.36-.22.73-.24,2.27-.02,1.81-.03,1.86-.49,3.32-.93,2.92-1.41,5.53-1.02,5.53.11,0,.31-.32.54-.88h0ZM54.9,199.89c-.12-.07-.2-.25-.2-.45,0-.27.06-.35.3-.41.45-.11.89.08.94.41.07.47-.55.74-1.04.45h0ZM52.45,199.72c-.33-.23-.34-.85-.03-1.13.29-.26.91-.25,1.11.01.24.33.18.8-.15,1.06-.36.28-.59.3-.93.06h0ZM50.22,199c-.26-.29-.25-.89.03-1.04.54-.29,1.26.1,1.26.68,0,.55-.9.8-1.29.36h0ZM55.5,194.25c-.16-.19-.09-.58.16-.91l.17-.23.43.23c.57.3.63.66.16.91-.43.22-.74.23-.92,0h0ZM28.32,191.49c-.14-.14-.08-.96.11-1.33.23-.45.94-1.33,1.07-1.33.2,0,.8,1.07.8,1.43,0,.42-.33.9-.8,1.14-.33.17-1.04.23-1.17.09h0ZM64.86,188.92c-.62-.32-.61-.74.04-1.04.5-.24.7-.12.81.46.12.64-.25.89-.85.58h0ZM30.48,187.77c-.19-.14-.19-.18.12-.72l.32-.57-.31-.37c-.38-.45-.38-.49-.05-.87.19-.22.43-.33.87-.4.34-.05.65-.14.7-.19.05-.05-.09-.34-.3-.65-.28-.39-.4-.68-.4-.98,0-.23.03-.45.07-.48.04-.04.37.04.73.16.85.29,1.41.25,1.46-.09.02-.16-.07-.32-.27-.46-.58-.4-.96-.82-.96-1.07,0-.23.04-.25.48-.18.27.04.65.1.85.14.32.07.42.02.81-.38.69-.7,1.15-.74,1.34-.12.05.17-.02.32-.28.55-.26.24-.35.43-.36.7,0,.51-.21.89-.63,1.12-.32.18-.34.23-.31.77.03.5,0,.63-.3.96-.18.21-.51.77-.73,1.24-.43.93-.97,1.63-1.47,1.89-.4.21-1.13.21-1.4.02h0ZM65.37,186.37c-.56-.56.26-1.14.94-.67.31.22.32.41.04.66-.26.24-.75.24-.98,0h0ZM68.5,186.33c-.26-.49.3-1.49.84-1.49.27,0,.53.38.53.8,0,.33-.47.79-.87.87-.29.06-.38.02-.49-.18ZM52.53,185.69c-.21-.26-.19-1.22.04-1.57.11-.17.37-.34.63-.41.24-.06.53-.22.65-.35.38-.42.88-.28,1.2.35.28.55.15.99-.41,1.42-.87.66-1.82.92-2.11.56h0ZM72.06,185.66c-.12-.08-.12-.21.02-.75.09-.36.26-.75.37-.87.22-.24.73-.29.93-.09.23.23-.22,1.32-.67,1.63-.29.2-.42.22-.64.08h0ZM51.35,182.67c-.44-.35-.68-.87-.6-1.33.13-.8.68-1.03,1.39-.59.36.22.38.22.48.03.06-.11.14-.37.19-.57.1-.48.48-.95.76-.95.13,0,.38.15.56.33.29.29.33.42.33.94,0,.91-.18,1.18-.78,1.18-.52,0-.67.12-1.06.84-.16.29-.27.35-.58.35-.22,0-.52-.1-.69-.24h0ZM72.83,182.67c-.29-.29-.28-1.21.02-1.4.28-.18.73,0,.89.33.17.37,0,1.02-.33,1.19-.28.15-.31.15-.57-.12h0ZM75.8,182.42c-.16-.08-.3-.22-.32-.32-.05-.26.46-.96.74-1,.5-.07.62.77.18,1.26-.21.24-.23.24-.6.05h0ZM50.28,179.18c-.08-.03-.22-.21-.32-.4-.21-.4-.09-.88.32-1.32.2-.22.36-.26.95-.26.67,0,.72-.02,1-.38.16-.21.45-.45.64-.53.42-.17,1.29-.07,1.5.18.22.27-.07,1.05-.58,1.56-.41.41-.47.43-1.15.43s-.74.02-1.08.4c-.29.31-.45.4-.75.39-.21,0-.45-.04-.53-.07h0ZM79.36,178.34c-.19-.07-.26-.2-.26-.44,0-.37.49-1.04.75-1.04.18,0,.51.57.51.88,0,.47-.52.78-1,.59h0ZM36.23,178.08c-.28-.1-.41-.22-.44-.4-.05-.34.27-.82.54-.82.31,0,.69.54.69.98s-.12.47-.8.23ZM82.59,177.28c-.17-.12-.2-.23-.13-.49.09-.38.49-.84.71-.84.26,0,.51.53.47.99-.03.41-.06.44-.44.47-.22.02-.5-.04-.62-.12ZM49.34,176.08c-.28-.28-.34-.44-.34-.85,0-.81.41-1.04,1.41-.76l.44.12-.05.57c-.11,1.11-.81,1.55-1.46.91ZM28.7,175.04c-.13-.13-.23-.31-.23-.4,0-.23.51-.74.74-.74.27,0,.63.42.63.73,0,.59-.7.84-1.14.41h0ZM42.2,174.38c-.29-.19-.4-.59-.28-1.01.24-.86.89-1.14,1.15-.49.18.44,0,1.16-.37,1.42-.28.2-.32.2-.5.09h0ZM88.82,173.26c-.44-.31-.3-1.16.23-1.34.58-.2.94.9.43,1.32-.3.24-.33.25-.65.02h0ZM48.43,172.9c-.55-.2-.76-.83-.35-1.06.56-.3,1.38,0,1.38.51s-.48.75-1.03.55ZM91.88,171.79c-.08-.09-.12-.28-.1-.43.03-.23.1-.26.48-.25.56.02.99.39.76.66-.19.22-.96.23-1.14.01h0ZM45.11,171.44c-.37-.2-.48-.46-.32-.76.15-.28,1.43-.89,2.04-.98.51-.07,1.14.14,1.14.38,0,.25-2.04,1.54-2.42,1.52-.08,0-.28-.08-.45-.17h0ZM50.31,171.22c-.36-.36-.39-1.02-.05-1.21.31-.17.84-.04,1.25.31.42.35.43.63.04.94-.41.32-.9.3-1.24-.04h0ZM93.73,169.88c-.37-.48-.49-1.66-.19-1.96.53-.53,1.53.1,1.53.96,0,.37-.07.55-.33.81-.35.35-.81.44-1,.19ZM49,169.1c-.07-.13-.11-.37-.09-.54.03-.25.1-.31.38-.34.34-.03.96.32.96.56,0,.15-.69.56-.94.56-.11,0-.25-.1-.32-.23h0ZM49.46,165.57c-.29-.29-.29-.71,0-.97.43-.39,1.37.04,1.37.63,0,.52-.95.75-1.37.33h0ZM47.83,163.8c-.36-.2-.52-.66-.31-.91.19-.23,1.24-.23,1.57,0,.31.22.33.63.04.89-.26.23-.88.24-1.3.01h0ZM50.51,162.33c-.45-.2-.64-.62-.48-1.05.08-.2.18-.28.31-.25.36.09,1.74,1.16,1.63,1.27-.18.18-1.08.2-1.46.03h0ZM46.06,161.64c-.47-.21-.49-.55-.04-.74.59-.24,1.49.35,1.21.79-.1.16-.73.13-1.17-.05h0ZM49.03,160.31c-.72-.21-1.11-1.34-.54-1.6.52-.24,1.23.22,1.43.92.09.3.06.4-.12.59-.25.25-.24.25-.77.09h0ZM46.78,158.25c-.19-.16-.28-.33-.24-.44.08-.21.65-.56.9-.56.22,0,.55.62.51.95-.05.37-.76.41-1.17.05h0ZM47.8,154.83c-.47-.27-.53-.69-.16-1.16.29-.36.88-.41,1.17-.09.29.33.24.87-.11,1.15-.34.26-.56.29-.9.1h0ZM45.72,152.89c-.2-.2-.17-.48.1-.82.56-.71,1.36-.05.84.7-.2.28-.71.34-.94.12h0ZM49.4,150.8c-.19-.1-.68-.49-1.09-.88-.41-.39-.91-.79-1.11-.9-.51-.27-.84-.84-.8-1.4.03-.44.05-.46.4-.44.52.02,1.48.75,1.57,1.19.06.27.2.4.69.63.68.32,1.08.84,1.08,1.38,0,.3-.17.61-.34.61-.03,0-.22-.08-.4-.18Z"/>
  </g>
</svg>